<svg width="78" height="12" viewBox="0 0 78 12" fill="none" xmlns="http://www.w3.org/2000/svg">
    <path fill-rule="evenodd" clip-rule="evenodd" d="M10.0926 11.9997C10.0247 11.9997 9.95818 11.9834 9.89546 11.9519L6.39976 10.1462L2.90406 11.9519C2.76198 12.0261 2.5879 12.0135 2.45734 11.9205C2.32678 11.8262 2.2615 11.669 2.28838 11.5118L2.95526 7.68921L0.127723 4.9807C0.0125225 4.87005 -0.0297177 4.70406 0.0214826 4.55317C0.0714029 4.40228 0.203244 4.29163 0.363245 4.26899L4.27239 3.71195L6.0196 0.232625C6.09128 0.0905353 6.23848 0 6.39976 0C6.56232 0 6.70952 0.0905353 6.7812 0.232625L8.52842 3.71195L12.4363 4.26899C12.5963 4.29163 12.7294 4.40228 12.7793 4.55317C12.8292 4.70406 12.787 4.87005 12.6718 4.9807L9.84426 7.68921L10.5111 11.5118C10.5393 11.669 10.4727 11.8262 10.3422 11.9205C10.2692 11.9733 10.1809 11.9997 10.0926 11.9997Z" fill="#FFD037"/>
    <path fill-rule="evenodd" clip-rule="evenodd" d="M26.4618 11.9997C26.3982 11.9997 26.3358 11.9834 26.277 11.9519L22.9998 10.1462L19.7226 11.9519C19.5894 12.0261 19.4262 12.0135 19.3038 11.9205C19.1814 11.8262 19.1202 11.669 19.1454 11.5118L19.7706 7.68921L17.1197 4.9807C17.0117 4.87005 16.9721 4.70406 17.0201 4.55317C17.0669 4.40228 17.1905 4.29163 17.3405 4.26899L21.0054 3.71195L22.6434 0.232625C22.7106 0.0905353 22.8486 0 22.9998 0C23.1522 0 23.2902 0.0905353 23.3574 0.232625L24.9954 3.71195L28.659 4.26899C28.809 4.29163 28.9338 4.40228 28.9806 4.55317C29.0274 4.70406 28.9878 4.87005 28.8798 4.9807L26.229 7.68921L26.8542 11.5118C26.8806 11.669 26.8182 11.8262 26.6958 11.9205C26.6274 11.9733 26.5446 11.9997 26.4618 11.9997Z" fill="#FFD037"/>
    <path fill-rule="evenodd" clip-rule="evenodd" d="M43.0926 11.9997C43.0247 11.9997 42.9582 11.9834 42.8955 11.9519L39.3998 10.1462L35.9041 11.9519C35.762 12.0261 35.5879 12.0135 35.4573 11.9205C35.3268 11.8262 35.2615 11.669 35.2884 11.5118L35.9553 7.68921L33.1277 4.9807C33.0125 4.87005 32.9703 4.70406 33.0215 4.55317C33.0714 4.40228 33.2032 4.29163 33.3632 4.26899L37.2724 3.71195L39.0196 0.232625C39.0913 0.0905353 39.2385 0 39.3998 0C39.5623 0 39.7095 0.0905353 39.7812 0.232625L41.5284 3.71195L45.4363 4.26899C45.5963 4.29163 45.7294 4.40228 45.7793 4.55317C45.8292 4.70406 45.787 4.87005 45.6718 4.9807L42.8443 7.68921L43.5111 11.5118C43.5393 11.669 43.4727 11.8262 43.3422 11.9205C43.2692 11.9733 43.1809 11.9997 43.0926 11.9997Z" fill="#FFD037"/>
    <path fill-rule="evenodd" clip-rule="evenodd" d="M59.4618 11.9997C59.3982 11.9997 59.3358 11.9834 59.277 11.9519L55.9998 10.1462L52.7226 11.9519C52.5894 12.0261 52.4262 12.0135 52.3038 11.9205C52.1814 11.8262 52.1202 11.669 52.1454 11.5118L52.7706 7.68921L50.1197 4.9807C50.0117 4.87005 49.9721 4.70406 50.0201 4.55317C50.0669 4.40228 50.1905 4.29163 50.3405 4.26899L54.0054 3.71195L55.6434 0.232625C55.7106 0.0905353 55.8486 0 55.9998 0C56.1522 0 56.2902 0.0905353 56.3574 0.232625L57.9954 3.71195L61.659 4.26899C61.809 4.29163 61.9338 4.40228 61.9806 4.55317C62.0274 4.70406 61.9878 4.87005 61.8798 4.9807L59.229 7.68921L59.8542 11.5118C59.8806 11.669 59.8182 11.8262 59.6958 11.9205C59.6274 11.9733 59.5446 11.9997 59.4618 11.9997Z" fill="#FFD037"/>
    <path fill-rule="evenodd" clip-rule="evenodd" d="M75.4618 11.9997C75.3982 11.9997 75.3358 11.9834 75.277 11.9519L71.9998 10.1462L68.7226 11.9519C68.5894 12.0261 68.4262 12.0135 68.3038 11.9205C68.1814 11.8262 68.1202 11.669 68.1454 11.5118L68.7706 7.68921L66.1197 4.9807C66.0117 4.87005 65.9721 4.70406 66.0201 4.55317C66.0669 4.40228 66.1905 4.29163 66.3405 4.26899L70.0054 3.71195L71.6434 0.232625C71.7106 0.0905353 71.8486 0 71.9998 0C72.1522 0 72.2902 0.0905353 72.3574 0.232625L73.9954 3.71195L77.659 4.26899C77.809 4.29163 77.9338 4.40228 77.9806 4.55317C78.0274 4.70406 77.9878 4.87005 77.8798 4.9807L75.229 7.68921L75.8542 11.5118C75.8806 11.669 75.8182 11.8262 75.6958 11.9205C75.6274 11.9733 75.5446 11.9997 75.4618 11.9997Z" fill="#FFD037"/>
</svg>
